{"title":"The Spirit of St.Louis(1957)MP-4[DaScubaDude]","uid":12358501,"size":1654046265,"categoryP":"video","categoryS":"movies","magnet":"?xt=urn:btih:f71baf71e51f8e142201acfea19ade774f99a877&amp;dn=The+Spirit+of+St.Louis%281957%29MP-4%5BDaScubaDude%5D&amp;tr=udp%3A%2F%2Ftracker.openbittorrent.com%3A80&amp;tr=udp%3A%2F%2Fopen.demonii.com%3A1337&amp;tr=udp%3A%2F%2Ftracker.coppersurfer.tk%3A6969&amp;tr=udp%3A%2F%2Fexodus.desync.com%3A6969","seeders":1,"leechers":0,"uploader":"dascuba","files":1,"time":1441503698,"description":"\nContact the Filmmakers on IMDbPro Â»\nSEE RANK\nThe Spirit of St. Louis (1957)\nApproved  |  135 min  |  Adventure, Biography, Drama  |  20 April 1957 (USA)\n7.2 Your rating:   -/10   Ratings: 7.2/10 from 5,181 users   \nReviews: 51 user | 24 critic\nCharles 'Slim' Lindbergh struggles to finance and design an airplane that will make his New York to Paris flight the first solo transatlantic crossing.\n\nDirector: Billy Wilder\nWriters: Charles A. Lindbergh (book), Billy Wilder (screenplay), 2 more credits Â»\nStars: James Stewart, Murray Hamilton, Patricia Smith \n\nGeneral\nComplete name                            : C:The Spirit of St. LouisTHE_SPIRIT_OF_ST_LOUIS_Title1.mp4\nFormat                                   : MPEG-4\nFormat profile                           : Base Media\nCodec ID                                 : isom\nFile size                                : 1.54 GiB\nDuration                                 : 2h 14mn\nOverall bit rate mode                    : Constant\nOverall bit rate                         : 1 634 Kbps\nMovie name                               : THE_SPIRIT_OF_ST_LOUIS_Title1\nWriting application                      : Lavf54.6.100\n\nVideo\nID                                       : 1\nFormat                                   : MPEG-4 Visual\nFormat settings, BVOP                    : No\nFormat settings, QPel                    : No\nFormat settings, GMC                     : No warppoints\nFormat settings, Matrix                  : Default (H.263)\nCodec ID                                 : 20\nDuration                                 : 2h 14mn\nBit rate mode                            : Constant\nBit rate                                 : 1 500 Kbps\nWidth                                    : 720 pixels\nHeight                                   : 404 pixels\nDisplay aspect ratio                     : 16:9\nFrame rate mode                          : Constant\nFrame rate                               : 29.970 fps\nColor space                              : YUV\nChroma subsampling                       : 4:2:0\nBit depth                                : 8 bits\nScan type                                : Progressive\nCompression mode                         : Lossy\nBits/(Pixel*Frame)                       : 0.172\nStream size                              : 1.41 GiB (92%)\nWriting library                          : Lavc54.23.100\n\nAudio\nID                                       : 2\nFormat                                   : MPEG Audio\nFormat version                           : Version 1\nFormat profile                           : Layer 3\nCodec ID                                 : 6B\nDuration                                 : 2h 14mn\nBit rate mode                            : Constant\nBit rate                                 : 128 Kbps\nChannel(s)                               : 2 channels\nSampling rate                            : 44.1 KHz\nCompression mode                         : Lossy\nStream size                              : 124 MiB (8%)","torrent":{"xt":"urn:btih:f71baf71e51f8e142201acfea19ade774f99a877","amp;dn":"The+Spirit+of+St.Louis%281957%29MP-4%5BDaScubaDude%5D","amp;tr":["udp%3A%2F%2Ftracker.openbittorrent.com%3A80","udp%3A%2F%2Fopen.demonii.com%3A1337","udp%3A%2F%2Ftracker.coppersurfer.tk%3A6969","udp%3A%2F%2Fexodus.desync.com%3A6969"],"infoHash":"f71baf71e51f8e142201acfea19ade774f99a877","infoHashBuffer":{"type":"Buffer","data":[247,27,175,113,229,31,142,20,34,1,172,254,161,154,222,119,79,153,168,119]},"announce":[],"urlList":[]}}